#!OML:ASF X:\für Bonn\!DataBase\2005_08_11_Bastian_Final\c3d\Bastian.ASF
:FULLY-SPECIFIED
:DEGREES
94
root -0.0433821 5.80371 6.65279 164.457 -6.68383 -178.884
lowerback 38.6483 -0.372833 2.58594
upperback 7.88195 -2.57005 -2.2959
thorax -10.3155 -2.37892 -2.5422
lowerneck -18.8775 -6.76599 -0.661782
upperneck -8.72871 -10.7562 10.8409
head 1.04986 -6.00069 2.89572
rclavicle 1.25234e-014 -7.15625e-015
rhumerus 63.439 2.2667 -6.8811
rradius 41.4415
rwrist -48.3553
rhand -43.5826 -4.05378
rfingers 7.12502
rthumb -16.4194 -33.3789
lclavicle 1.25234e-014 -7.15625e-015
lhumerus 66.777 -3.88614 -10.8312
lradius 34.7285
lwrist 10.035
lhand -44.2109 12.9266
lfingers 7.12502
lthumb -17.0242 42.2006
rfemur 84.6109 -55.7337 -133.85
rtibia 166.336
rfoot -56.0412 5.341
rtoes 22.3802
lfemur -65.3845 65.96 -1.38506
ltibia 165.889
lfoot -45.3697 -29.7172
ltoes 7.6259
95
root -0.0396841 5.779 6.66412 164.501 -6.52947 -178.802
lowerback 38.6336 -0.330219 2.60796
upperback 7.96453 -2.52489 -2.21
thorax -10.2088 -2.36928 -2.48157
lowerneck -19.2739 -6.7091 -0.688942
upperneck -8.69526 -10.7206 10.8478
head 1.12655 -5.98454 2.89104
rclavicle 2.127e-014 3.26007e-014
rhumerus 63.512 2.31761 -7.01831
rradius 41.3942
rwrist -48.2346
rhand -43.4878 -3.95994
rfingers 7.12502
rthumb -16.328 -33.2926
lclavicle 2.127e-014 3.26007e-014
lhumerus 66.4517 -4.06245 -10.9385
lradius 34.7657
lwrist 9.64629
lhand -44.3157 12.9936
lfingers 7.12502
lthumb -17.1251 42.2589
rfemur 85.1241 -55.4026 -134.063
rtibia 166.417
rfoot -56.2748 5.35127
rtoes 22.8694
lfemur -65.8351 66.3797 -1.38181
ltibia 166.083
lfoot -45.449 -29.7556
ltoes 7.81172
96
root -0.0349341 5.78158 6.67641 164.63 -6.36441 -178.733
lowerback 38.6084 -0.283285 2.61496
upperback 8.01103 -2.46848 -2.12494
thorax -10.1387 -2.34976 -2.41864
lowerneck -19.6789 -6.64682 -0.702937
upperneck -8.65878 -10.6805 10.8349
head 1.20323 -5.96647 2.87771
rclavicle -1.19271e-015 -2.46493e-014
rhumerus 63.5428 2.35213 -7.0514
rradius 41.3645
rwrist -48.0999
rhand -43.3956 -3.91318
rfingers 7.12502
rthumb -16.2393 -33.2531
lclavicle -1.19271e-015 -2.46493e-014
lhumerus 66.117 -4.1963 -10.8938
lradius 34.8306
lwrist 9.15496
lhand -44.358 12.8866
lfingers 7.12502
lthumb -17.1658 42.1484
rfemur 85.5827 -55.7074 -134.131
rtibia 166.289
rfoot -56.5377 5.41932
rtoes 23.15
lfemur -66.4839 66.2968 -1.7864
ltibia 166.066
lfoot -45.5654 -29.7935
ltoes 7.98488
97
root -0.0293457 5.80925 6.68971 164.839 -6.21762 -178.64
lowerback 38.5705 -0.263308 2.6377
upperback 8.01252 -2.42384 -2.04124
thorax -10.1166 -2.32986 -2.36054
lowerneck -20.0414 -6.5635 -0.653711
upperneck -8.65117 -10.6235 10.7739
head 1.25451 -5.94527 2.84119
rclavicle 2.28602e-014 6.36111e-015
rhumerus 63.5496 2.3993 -6.95275
rradius 41.3691
rwrist -48.0891
rhand -43.2756 -3.87526
rfingers 7.12502
rthumb -16.1237 -33.2245
lclavicle 2.28602e-014 6.36111e-015
lhumerus 65.791 -4.30141 -10.8401
lradius 34.9478
lwrist 8.75568
lhand -44.3587 12.668
lfingers 7.12502
lthumb -17.1664 41.9297
rfemur 85.9673 -56.6028 -134.008
rtibia 165.962
rfoot -56.8332 5.615
rtoes 23.3515
lfemur -67.2053 65.7991 -2.36235
ltibia 165.853
lfoot -45.6562 -29.9397
ltoes 8.26312
98
root -0.0226402 5.85501 6.7039 165.122 -6.07845 -178.567
lowerback 38.5027 -0.234484 2.62184
upperback 7.98252 -2.37012 -1.95229
thorax -10.1187 -2.30038 -2.28101
lowerneck -20.3532 -6.47538 -0.629512
upperneck -8.67159 -10.5534 10.7613
head 1.29241 -5.91893 2.82915
rclavicle 2.26615e-014 9.54166e-015
rhumerus 63.5222 2.4159 -6.73769
rradius 41.396
rwrist -48.0903
rhand -43.1337 -3.901
rfingers 7.12502
rthumb -15.9871 -33.2613
lclavicle 2.26615e-014 9.54166e-015
lhumerus 65.4765 -4.38768 -10.7992
lradius 35.0918
lwrist 8.55837
lhand -44.3913 12.2944
lfingers 7.12502
lthumb -17.1979 41.5533
rfemur 86.2853 -57.8954 -133.782
rtibia 165.498
rfoot -57.1657 5.8113
rtoes 23.4487
lfemur -68.006 64.9258 -3.14452
ltibia 165.493
lfoot -45.7561 -30.0694
ltoes 8.38472
99
root -0.016531 5.91797 6.71862 165.442 -5.92494 -178.458
lowerback 38.421 -0.219315 2.63123
upperback 7.93806 -2.31599 -1.84716
thorax -10.132 -2.26906 -2.19783
lowerneck -20.5868 -6.37665 -0.666736
upperneck -8.76236 -10.4564 10.8256
head 1.30126 -5.88356 2.86091
rclavicle 2.127e-014 1.43125e-014
rhumerus 63.5014 2.40805 -6.39997
rradius 41.4552
rwrist -48.1614
rhand -42.9908 -3.93088
rfingers 7.12502
rthumb -15.8495 -33.3022
lclavicle 2.127e-014 1.43125e-014
lhumerus 65.1712 -4.4391 -10.7336
lradius 35.2107
lwrist 8.42084
lhand -44.4242 11.9327
lfingers 7.12502
lthumb -17.2295 41.1889
rfemur 86.5011 -59.7352 -133.295
rtibia 164.892
rfoot -57.4881 5.80196
rtoes 23.0293
lfemur -68.7449 63.8753 -3.85826
ltibia 165.006
lfoot -45.8138 -30.3425
ltoes 8.70015
100
root -0.0101597 5.99298 6.73385 165.801 -5.805 -178.389
lowerback 38.3346 -0.206122 2.61581
upperback 7.87805 -2.2708 -1.76331
thorax -10.1629 -2.23898 -2.12077
lowerneck -20.8145 -6.27554 -0.64779
upperneck -8.85437 -10.3666 10.8372
head 1.30148 -5.85423 2.86474
rclavicle -2.38542e-014 -3.49861e-014
rhumerus 63.4643 2.38709 -6.03339
rradius 41.5143
rwrist -48.2012
rhand -42.9122 -4.03506
rfingers 7.12502
rthumb -15.7738 -33.4123
lclavicle -2.38542e-014 -3.49861e-014
lhumerus 64.9341 -4.4791 -10.8329
lradius 35.291
lwrist 8.46665
lhand -44.5225 11.6353
lfingers 7.12502
lthumb -17.3241 40.8832
rfemur 86.7401 -61.4592 -132.867
rtibia 164.215
rfoot -57.8284 5.62259
rtoes 22.3666
lfemur -69.5793 62.4168 -4.86438
ltibia 164.421
lfoot -45.835 -30.4365
ltoes 8.80581
101
root -0.00439675 6.07954 6.7504 166.191 -5.6644 -178.278
lowerback 38.2474 -0.205453 2.64862
upperback 7.79308 -2.21438 -1.68025
thorax -10.2218 -2.20165 -2.07425
lowerneck -21.0684 -6.17604 -0.533906
upperneck -8.88524 -10.2948 10.7372
head 1.31398 -5.83162 2.81029
rclavicle 1.78906e-015 -3.18055e-015
rhumerus 63.3847 2.37475 -5.53783
rradius 41.6119
rwrist -48.3121
rhand -42.8316 -4.14899
rfingers 7.12502
rthumb -15.6962 -33.5324
lclavicle 1.78906e-015 -3.18055e-015
lhumerus 64.7407 -4.52222 -11.0542
lradius 35.343
lwrist 8.63761
lhand -44.6639 11.5036
lfingers 7.12502
lthumb -17.4602 40.7395
rfemur 86.9198 -63.6001 -132.249
rtibia 163.447
rfoot -58.1259 5.30373
rtoes 21.3856
lfemur -70.233 60.9151 -5.64061
ltibia 163.746
lfoot -45.7555 -30.7575
ltoes 9.36238
102
root 0.00158063 6.17738 6.76796 166.568 -5.53701 -178.217
lowerback 38.2056 -0.205465 2.63935
upperback 7.69797 -2.17791 -1.61258
thorax -10.3093 -2.17332 -2.01233
lowerneck -21.3776 -6.09143 -0.331727
upperneck -8.84091 -10.2588 10.4909
head 1.34738 -5.82395 2.68432
rclavicle 5.36719e-015 2.22639e-014
rhumerus 63.3405 2.38254 -4.95252
rradius 41.7282
rwrist -48.5706
rhand -42.8243 -4.20714
rfingers 7.12502
rthumb -15.6891 -33.5911
lclavicle 5.36719e-015 2.22639e-014
lhumerus 64.557 -4.6114 -11.4126
lradius 35.4016
lwrist 8.97284
lhand -44.9 11.6068
lfingers 7.12502
lthumb -17.6874 40.8223
rfemur 86.65 -66.0277 -131.317
rtibia 162.618
rfoot -58.3786 5.11155
rtoes 20.4524
lfemur -70.6104 59.283 -6.34141
ltibia 162.984
lfoot -45.7969 -30.8817
ltoes 9.51143
103
root 0.00777045 6.28422 6.78603 166.938 -5.42834 -178.152
lowerback 38.1816 -0.209957 2.64131
upperback 7.59242 -2.14003 -1.54497
thorax -10.415 -2.14382 -1.95635
lowerneck -21.6743 -6.00646 -0.0593043
upperneck -8.77594 -10.2334 10.1653
head 1.37663 -5.82246 2.51902
rclavicle -1.23246e-014 -2.14687e-014
rhumerus 63.2686 2.42107 -4.40093
rradius 41.8495
rwrist -48.8252
rhand -42.8285 -4.24469
rfingers 7.12502
rthumb -15.6932 -33.6283
lclavicle -1.23246e-014 -2.14687e-014
lhumerus 64.4448 -4.73438 -11.673
lradius 35.39
lwrist 9.15161
lhand -45.137 11.9255
lfingers 7.12502
lthumb -17.9155 41.1203
rfemur 85.6479 -68.9566 -129.66
rtibia 161.731
rfoot -58.6179 5.02118
rtoes 19.4887
lfemur -70.837 57.5134 -6.98236
ltibia 162.152
lfoot -45.8907 -30.8911
ltoes 9.43148
